<?xml version="1.0" encoding="UTF-8" standalone="no"?>
<svg
   xmlns:dc="http://purl.org/dc/elements/1.1/"
   xmlns:cc="http://creativecommons.org/ns#"
   xmlns:rdf="http://www.w3.org/1999/02/22-rdf-syntax-ns#"
   xmlns:svg="http://www.w3.org/2000/svg"
   xmlns="http://www.w3.org/2000/svg"
   viewBox="0 0 2000 2000"
   height="2000"
   width="2000"
   xml:space="preserve"
   id="svg2"
   version="1.1"><metadata
     id="metadata8"><rdf:RDF><cc:Work
         rdf:about=""><dc:format>image/svg+xml</dc:format><dc:type
           rdf:resource="http://purl.org/dc/dcmitype/StillImage" /></cc:Work></rdf:RDF></metadata><defs
     id="defs6"><clipPath
       id="clipPath18"
       clipPathUnits="userSpaceOnUse"><path
         id="path16"
         d="M 0,1500 H 1500 V 0 H 0 Z" /></clipPath></defs><g
     transform="matrix(1.3333333,0,0,-1.3333333,0,2000)"
     id="g10"><g
       id="g12"><g
         clip-path="url(#clipPath18)"
         id="g14"><g
           transform="translate(648.1421,42.9395)"
           id="g20"><path
             id="path22"
             style="fill:#fec663;fill-opacity:1;fill-rule:nonzero;stroke:none"
             d="M 0,0 C 0.174,10.516 5.094,19.227 10.811,27.51 19.309,39.824 28.083,51.948 36.307,65.463 -4.214,46.357 -45.722,33.526 -92.047,41.345 c 5.968,11.208 14.119,19.847 24.379,26.263 11.718,7.329 23.921,13.878 35.846,20.882 1.701,0.999 4.126,2.542 4.275,4.028 0.285,2.845 -3.018,3.295 -5.03,3.887 -17.191,5.07 -34.423,10.006 -51.699,14.778 -4.084,1.128 -8.12,-0.874 -12.185,-1.262 -67.688,-6.442 -133.78,1.217 -198.246,22.811 -3.05,1.022 -5.921,2.605 -8.814,4.05 -1.544,0.771 -2.958,1.805 -4.563,2.803 8.148,5.192 19.07,7.853 32.28,9.305 11.16,1.226 22.328,0.738 35.975,1.276 -6.746,4.283 -11.697,7.463 -16.685,10.586 -27.266,17.073 -52.61,35.878 -73.721,61.026 -12.453,14.835 -28.811,26.714 -40.937,42.368 -31.326,40.435 -58.318,83.422 -76.655,131.416 -2.551,6.677 -5.519,13.508 -4.134,22.231 10.282,-5.514 19.109,-11.65 26.399,-19.77 7.196,-8.015 14.023,-16.361 22.004,-25.725 1.622,9.428 -0.862,17.079 -1.628,24.679 -2.391,23.739 -4.918,47.413 -1.518,71.252 0.388,2.722 -0.14,5.165 -1.643,7.552 -21.025,33.399 -31.395,70.826 -40.28,108.673 -7.26,30.922 -13.036,62.149 -12.677,94.157 0.063,5.612 0.761,11.066 2.425,17.262 17.851,-16.57 24.096,-38.709 32.636,-62.011 2.708,12.043 5.002,21.983 7.171,31.949 3.253,14.948 8.111,29.453 12.066,44.186 3.554,13.241 5.823,25.978 -2.711,40.195 -20.011,33.342 -29.238,71.043 -37.369,108.79 -5.886,27.317 -10.87,54.792 -10.66,82.915 0.047,6.194 0.107,12.374 2.661,18.97 17.493,-16.006 23.526,-38.022 32.455,-61.497 7.86,35.063 13.718,68.048 29.612,99.091 16.46,-31.838 20.008,-66.025 26.133,-102.256 11.128,24.267 17.423,48.376 37.737,65.742 1.859,-13.211 -0.401,-25.047 -1.727,-36.73 -4.851,-42.72 -12.587,-84.862 -27.802,-125.33 -6.854,-18.23 -14.818,-35.91 -25.228,-52.387 -2.332,-3.693 -2.772,-7.401 -3.306,-11.541 -2.771,-21.464 6.123,-41.032 9.459,-61.486 2.217,-13.589 4.571,-27.157 7.272,-43.154 11.523,23.593 17.084,48.391 38.176,65.415 0.872,-18.141 -1.702,-34.656 -3.832,-51.096 -4.918,-37.963 -12.642,-75.334 -26.194,-111.312 -6.864,-18.222 -15.013,-35.8 -25.197,-52.418 -5.009,-8.174 -4.372,-23.814 1.31,-31.402 10.811,-14.438 19.129,-30.351 27.533,-46.216 2.873,-5.424 5.686,-10.879 9.82,-18.798 3.772,26.725 0.993,52.306 15.244,75.028 3.619,-6.6 4.231,-13.522 6.081,-19.984 1.938,-6.767 3.143,-13.746 4.664,-20.633 8.978,-40.618 14.536,-81.624 13.427,-123.323 -0.485,-18.237 -1.938,-36.436 -6.498,-54.174 -1.711,-6.657 -0.031,-11.236 4.339,-16.539 8.022,-9.733 16.899,-14.125 30.059,-14.285 19.341,-0.236 38.305,-5.549 57.312,-9.384 1.369,-0.276 2.788,-0.302 6.064,-0.635 -18.066,18.76 -39.315,32.858 -48.349,58.273 11.186,-3.036 20.63,-8.315 30.201,-12.989 44.872,-21.915 87.371,-47.53 124.322,-81.564 10.206,-9.399 19.672,-19.491 27.972,-30.589 3.128,-4.181 6.079,-5.589 11.078,-3.4 8.531,3.735 17.278,6.978 26.52,10.662 -11.998,14.548 -22.859,28.836 -28.856,46.055 -1.506,4.324 -4.973,9.668 -1.645,13.238 2.533,2.717 7.656,-0.932 11.429,-2.048 22.266,-6.59 44.245,-14.202 66.647,-20.264 31.762,-8.595 55.294,-27.937 73.844,-54.12 4.382,-6.184 9.381,-7.903 16.82,-8.588 19.786,-1.825 35.039,2.147 46.772,20.565 15.842,24.871 41.886,35.88 69.327,43.8 22.025,6.358 43.861,13.375 65.811,19.998 7.741,2.335 8.995,1.217 6.796,-6.591 -5.048,-17.928 -15.274,-32.989 -26.881,-47.227 -1.096,-1.345 -2.225,-2.665 -4.054,-4.851 10.123,-3.94 19.635,-7.515 29.039,-11.359 4.063,-1.661 5.868,0.773 7.982,3.374 48.202,59.325 112.611,95.289 181.011,125.487 0.242,0.106 0.572,0.013 1.724,0.013 -3.791,-12.542 -11.664,-22.02 -20.145,-31.152 -8.338,-8.977 -16.575,-18.049 -23.947,-26.088 15.913,2.727 33.721,5.884 51.573,8.772 5.205,0.842 10.555,1.437 15.799,1.217 6.772,-0.286 11.207,2.618 16.106,7.098 9.27,8.477 12.306,16.992 9.331,29.95 -7.573,32.982 -6.682,66.636 -3.433,100.127 3.467,35.756 10.709,70.861 19.844,105.58 0.446,1.694 1.117,3.329 1.989,5.89 14.814,-22.662 11.968,-48.293 15.465,-75.092 6.817,12.608 12.429,23.379 18.416,33.939 4.93,8.695 9.884,17.429 15.571,25.631 10.546,15.208 11.135,26.079 1.882,41.856 -22.937,39.109 -35.236,81.925 -43.327,126.136 -4.5,24.589 -7.726,49.356 -9.051,74.342 -0.135,2.542 -0.018,5.098 -0.018,9.365 20.977,-17.29 26.897,-41.551 37.764,-64.761 3.957,12.126 4.389,23.383 6.352,34.29 2.346,13.035 4.954,25.976 8.947,38.607 1.251,3.959 1.653,7.944 1.999,12.078 1.308,15.667 -2.465,29.278 -10.417,43.305 -22.597,39.86 -33.696,83.803 -40.945,128.747 -3.788,23.494 -7.015,47.066 -7.499,73.014 21.282,-17.352 27.283,-41.755 38.541,-66.048 6.155,36.134 9.659,70.304 26.101,102.138 16.014,-30.911 21.742,-63.894 29.853,-96.432 8.543,20.795 14.851,42.426 32.221,59.123 1.721,-4.774 2.739,-9.134 2.582,-13.695 -2.502,-72.344 -17.196,-141.582 -52.427,-205.589 -5.383,-9.783 -1.606,-20.274 1.065,-29.054 7.373,-24.234 13.655,-48.636 18.455,-73.469 0.212,-1.096 0.92,-2.097 1.925,-4.3 7.97,22.107 14.486,43.857 31.826,60.819 4.478,-11.917 3.435,-23.924 2.395,-35.511 -4.676,-52.101 -16.262,-102.695 -35.44,-151.423 -4.306,-10.94 -9.533,-21.533 -15.991,-31.435 -1.617,-2.479 -3.273,-4.878 -2.813,-8.106 4.498,-31.586 -0.596,-62.777 -3.915,-94.039 -0.092,-0.865 -0.166,-1.73 -0.477,-4.997 15.561,18.337 27.9,37.508 49.744,47.023 1.545,-7.935 -1.496,-14.482 -3.829,-20.906 -14.385,-39.601 -36.083,-75.299 -60.08,-109.604 -16.205,-23.162 -34.03,-44.847 -56.316,-62.942 -11.21,-9.102 -18.717,-22.503 -30.299,-31.879 -18.753,-15.181 -39.397,-27.532 -61.815,-41.947 24.819,-0.066 47.425,0.473 69.267,-9.758 -12.781,-8.739 -26.904,-12.774 -41.024,-16.241 -50.824,-12.484 -102.396,-18.392 -154.784,-16.004 -3.804,0.173 -7.618,0.725 -11.363,1.44 -25.44,4.859 -47.452,-7.889 -70.762,-13.829 -6.335,-1.615 -3.485,-4.645 0.079,-6.724 11.946,-6.966 24.083,-13.615 35.9,-20.791 10.462,-6.35 18.456,-15.224 25.297,-26.695 -46.308,-7.827 -87.76,4.714 -127.809,25.028 -0.435,-0.714 -0.869,-1.429 -1.303,-2.143 6.2,-8.619 12.566,-17.124 18.56,-25.884 C 193.05,26.588 202.705,15.442 203.257,0 H 173.21 c -2.571,1.341 -3.543,3.711 -4.291,6.336 -6.887,24.15 -20.957,44.352 -34.815,64.835 -9.153,13.529 -21.511,16.67 -36.44,16.18 C 85.468,86.951 76.766,81.625 69.784,71.811 55.27,51.407 41.318,30.777 34.338,6.336 33.589,3.712 32.619,1.341 30.047,0 Z" /></g><g
           transform="translate(750.0762,225.7754)"
           id="g24"><path
             id="path26"
             style="fill:#fec663;fill-opacity:1;fill-rule:nonzero;stroke:none"
             d="m 0,0 c -27.557,50.911 -70.624,78.479 -126.621,87.729 -22.212,3.669 -44.546,3.243 -66.893,3.894 -24.953,0.729 -50.019,0.56 -74.598,6.213 -58.145,13.375 -101.416,59.099 -111.364,117.791 -4.495,26.52 -4.543,53.255 -4.03,80.026 0.158,8.245 0.125,16.495 0.125,24.743 0.006,193.24 0.005,386.48 0.004,579.72 0,11.318 -0.008,11.322 -11.471,11.323 -24.449,0.003 -48.902,0.201 -73.347,-0.135 -6.333,-0.087 -8.678,1.268 -8.603,8.189 0.366,33.872 0.361,67.752 0.003,101.624 -0.072,6.848 2.134,8.593 8.563,8.254 9.4,-0.496 18.86,0.19 28.267,-0.24 5.987,-0.274 7.359,2.069 7.427,7.672 0.288,23.296 0.461,23.293 -22.631,23.293 -21.463,0 -21.463,0 -21.463,21.569 0,29.457 0.156,58.916 -0.128,88.37 -0.059,6.083 1.557,8.093 7.854,8.011 25.623,-0.335 51.258,0.124 76.879,-0.307 7.163,-0.121 9.076,2.148 8.795,9.008 -0.508,12.351 0.149,24.748 -0.268,37.106 -0.201,5.977 2.012,8.005 7.619,7.297 1.45,-0.182 2.943,-0.026 4.416,-0.026 248.029,0 496.059,0.01 744.089,-0.023 12.702,0 11.277,1.559 11.355,-11.25 0.066,-11.194 0.371,-22.404 -0.124,-33.576 -0.286,-6.475 1.491,-8.636 8.281,-8.527 25.032,0.403 50.079,-0.071 75.111,0.311 6.82,0.103 9.029,-1.589 8.947,-8.744 -0.387,-33.577 -0.414,-67.164 0.016,-100.74 0.096,-7.428 -2.529,-8.928 -9.121,-8.598 -9.403,0.47 -18.851,-0.05 -28.272,0.187 -4.73,0.119 -6.667,-1.192 -6.893,-6.399 -1.067,-24.529 -1.232,-24.522 23.17,-24.522 20.928,0 20.928,10e-4 20.928,-21.217 0,-29.458 -0.206,-58.918 0.157,-88.37 0.082,-6.684 -1.858,-8.465 -8.433,-8.366 -24.738,0.374 -49.494,-0.196 -74.225,0.351 -7.93,0.175 -9.709,-2.142 -9.702,-9.841 0.232,-206.496 0.201,-412.991 0.221,-619.488 0.003,-26.213 0.13,-52.591 -7.086,-77.975 C 360.162,145.266 322.017,108.252 261.116,96.503 232.389,90.961 203.122,91.629 174.003,91.441 146.183,91.262 118.694,88.543 92.379,79.202 52.261,64.962 21,39.97 1.489,1.438 1.243,0.951 0.668,0.631 0,0" /></g><g
           transform="translate(530.3315,1111.4854)"
           id="g28"><path
             id="path30"
             style="fill:#3a5b8b;fill-opacity:1;fill-rule:nonzero;stroke:none"
             d="m 0,0 c 2.95,1.393 4.28,-0.771 5.851,-1.778 47.055,-30.157 99.031,-44.239 154.378,-46.895 50.243,-2.411 99.06,3.946 146.309,22.473 33.313,13.062 67.866,15.017 101.844,2.109 36.766,-13.969 57.826,-41.053 63.004,-80.255 1.622,-12.285 3.285,-24.565 0.188,-36.831 -3.563,-14.11 -14.291,-20.548 -28.691,-17.656 -8.831,1.774 -16.566,5.947 -24.137,10.508 -12.385,7.462 -24.122,15.9 -35.032,25.343 -26.953,23.332 -57.766,28.48 -91.722,20.784 -23.614,-5.352 -44.864,-17.74 -68.61,-22.641 -4.888,-1.01 -2.935,-5.204 -2.942,-8.018 -0.118,-49.489 -0.085,-98.977 -0.085,-148.466 0,-0.589 0.067,-1.187 -0.008,-1.766 -0.579,-4.408 0.901,-6.274 5.762,-6.183 15.017,0.282 30.048,0.272 45.066,0.003 4.756,-0.085 5.994,1.596 5.925,6.106 -0.229,14.725 0.092,29.459 -0.182,44.183 -0.09,4.901 1.238,6.783 6.389,6.582 9.411,-0.369 18.855,-0.328 28.27,-0.014 4.71,0.158 5.969,-1.506 5.958,-6.072 -0.135,-53.317 -0.125,-106.636 -0.017,-159.953 0.009,-4.391 -1.071,-6.433 -5.883,-6.292 -9.418,0.277 -18.858,0.312 -28.273,-0.017 -5.158,-0.18 -6.509,1.836 -6.433,6.703 0.241,15.608 -0.157,31.23 0.214,46.833 0.138,5.76 -1.521,7.577 -7.361,7.41 -14.128,-0.404 -28.286,-0.452 -42.41,0.017 -6.187,0.206 -7.131,-2.21 -7.119,-7.63 0.155,-68.636 0.132,-137.272 0.032,-205.907 -0.007,-4.28 0.673,-6.747 5.421,-8.339 21.671,-7.267 41.543,-17.857 58.779,-33.161 5.264,-4.674 11.191,-8.613 16.907,-12.762 13.34,-9.685 27.638,-12.48 43.295,-6.04 3.514,1.445 7.234,2.547 10.964,3.273 6.951,1.355 13.58,0.959 18.334,-5.405 4.996,-6.688 4.989,-13.942 0.99,-20.753 -9.088,-15.478 -23.01,-25.198 -40.013,-29.91 -32.747,-9.075 -71.622,4.395 -92.603,31.39 -21.52,27.689 -66.781,35.904 -96.52,17.555 -6.252,-3.857 -12.438,-7.844 -19.85,-9.318 -6.404,-1.272 -10.107,1.332 -11.883,7.422 -1.763,6.042 -0.453,11.682 2.103,17.107 4.639,9.848 11.922,17.486 20.801,23.568 10.239,7.011 21.243,12.571 33.032,16.556 13.206,4.464 13.189,4.513 13.189,18.184 0,136.389 -0.082,272.777 0.19,409.164 0.017,8.728 -1.881,11.6 -11.183,12.585 -32.933,3.488 -65.236,10.808 -94.227,27.363 C 38.969,-76.547 15.986,-40.927 0,0" /></g><g
           transform="translate(1151.8916,1310.3677)"
           id="g32"><path
             id="path34"
             style="fill:#ffffff;fill-opacity:1;fill-rule:nonzero;stroke:none"
             d="m 0,0 c -0.04,-27.568 -0.081,-55.136 -0.121,-82.703 -1.87,-2.847 -4.9,-2.989 -7.818,-3.255 -3.225,-0.292 -6.47,-0.18 -9.707,-0.18 -256.316,-0.003 -512.633,-0.017 -768.95,0.088 -5.926,0.002 -12.495,-1.937 -17.525,3.347 -0.042,27.568 -0.084,55.137 -0.127,82.705 4.28,3.628 9.485,2.676 14.389,2.686 42.394,0.089 84.789,0.049 127.184,0.049 C -447.462,2.738 -232.25,2.75 -17.037,2.675 -11.291,2.673 -5.17,4.079 0,0" /></g><g
           transform="translate(1151.8916,1310.3677)"
           id="g36"><path
             id="path38"
             style="fill:#8dc2e3;fill-opacity:1;fill-rule:nonzero;stroke:none"
             d="m 0,0 c -2.353,0.055 -4.705,0.158 -7.058,0.158 -263.377,0.008 -526.754,0.008 -790.131,0 -2.353,0 -4.706,-0.103 -7.059,-0.158 -13.534,0.109 -27.071,0.451 -40.599,0.212 -5.753,-0.101 -7.653,1.712 -7.528,7.57 0.357,16.77 0.313,33.556 0.021,50.329 -0.097,5.606 1.443,8.374 7.399,7.597 1.737,-0.226 3.528,-0.033 5.294,-0.033 291.696,0.001 583.392,0.007 875.088,-0.019 C 49.631,65.654 47.912,67.202 47.99,52.806 48.072,37.501 47.854,22.192 48.094,6.89 48.172,1.903 46.474,0.184 41.483,0.237 27.658,0.385 13.828,0.109 0,0" /></g><g
           transform="translate(347.771,1227.6646)"
           id="g40"><path
             id="path42"
             style="fill:#8dc2e3;fill-opacity:1;fill-rule:nonzero;stroke:none"
             d="m 0,0 c 3.234,-0.105 6.468,-0.302 9.702,-0.302 261.533,-0.014 523.066,-0.014 784.599,0 3.235,0 6.468,0.194 9.7,0.299 13.833,-0.1 27.669,-0.362 41.501,-0.217 4.848,0.052 6.784,-1.365 6.714,-6.482 -0.24,-17.665 -0.202,-35.336 -0.021,-53.002 0.049,-4.702 -1.822,-6.403 -6.285,-5.984 -1.751,0.165 -3.532,0.021 -5.298,0.021 -292.408,0 -584.817,0 -877.224,0.001 -11.509,0 -11.514,0.006 -11.517,11.262 -0.004,15.312 0.339,30.635 -0.156,45.932 -0.219,6.799 2.096,8.497 8.552,8.312 C -26.501,-0.538 -13.246,-0.101 0,0" /></g><g
           transform="translate(1025.9707,566.748)"
           id="g44"><path
             id="path46"
             style="fill:#3a5b8b;fill-opacity:1;fill-rule:nonzero;stroke:none"
             d="m 0,0 c -15.609,0.001 -31.221,0.161 -46.826,-0.089 -5.243,-0.084 -7.366,1.431 -7.207,6.992 0.346,12.066 0.315,24.153 0.011,36.22 -0.134,5.329 1.544,7.404 7.036,7.147 7.933,-0.373 15.908,0.144 23.847,-0.174 5.169,-0.208 6.9,1.442 5.646,6.604 -2.983,12.282 -5.956,24.576 -8.43,36.967 -0.872,4.368 -3.142,4.885 -6.754,4.876 -30.335,-0.067 -60.67,-0.094 -91.004,0.027 -3.95,0.016 -5.791,-1.337 -6.616,-5.237 -2.617,-12.363 -5.404,-24.695 -8.402,-36.972 -1.148,-4.698 0.058,-6.411 4.981,-6.253 8.238,0.264 16.496,-0.122 24.735,0.141 4.654,0.149 6.975,-0.86 6.835,-6.245 -0.337,-12.95 -0.284,-25.918 -0.018,-38.871 0.095,-4.657 -1.503,-6.031 -6.058,-6.07 -31.213,-0.272 -62.426,-0.694 -93.635,-1.3 -4.91,-0.096 -6.76,1.238 -6.644,6.378 0.301,13.247 0.311,26.508 -0.003,39.755 -0.125,5.25 1.987,6.323 6.742,6.41 7.25,0.133 16.522,-3.308 21.236,1.526 4.771,4.894 5.429,13.916 7.594,21.217 27.914,94.111 55.847,188.218 83.495,282.408 1.867,6.363 4.747,8.076 11.043,7.987 20.319,-0.29 20.328,-0.041 25.401,-19.76 C -28.614,248.897 -4.128,154.137 19.938,59.271 21.887,51.59 25.26,49.87 32.507,50.017 53.495,50.441 53.502,50.149 53.502,29.16 53.502,22.092 52.987,14.976 53.645,7.969 54.311,0.874 51.273,-0.293 45.058,-0.129 30.048,0.266 15.021,-0.001 0,0" /></g><g
           transform="translate(472.855,564.5967)"
           id="g48"><path
             id="path50"
             style="fill:#3a5b8b;fill-opacity:1;fill-rule:nonzero;stroke:none"
             d="m 0,0 c -15.603,0 -31.208,0.157 -46.806,-0.097 -4.646,-0.076 -6.144,1.391 -6.062,6.01 0.24,13.541 0.263,27.093 -0.008,40.633 -0.097,4.876 1.939,5.744 6.277,5.905 7.509,0.279 16.983,-3.448 22.008,1.822 4.72,4.95 5.198,14.012 7.366,21.317 27.841,93.81 55.71,187.612 83.335,281.486 1.897,6.444 4.675,8.706 11.525,8.554 20.033,-0.445 19.961,-0.136 25.108,-20.168 24.351,-94.778 48.827,-189.524 72.975,-284.353 1.795,-7.05 4.704,-9.145 11.91,-8.977 21.471,0.501 21.679,0.149 21.387,-21.269 -0.127,-9.293 4.096,-21.32 -1.833,-27.126 -5.49,-5.375 -17.388,-1.456 -26.455,-1.526 -23.556,-0.182 -47.116,0.119 -70.669,-0.183 -6.116,-0.078 -8.242,1.712 -8.015,7.957 0.439,12.057 0.266,24.144 0.061,36.213 -0.076,4.536 1.48,6.328 6.114,6.195 8.532,-0.247 17.084,0.137 25.614,-0.144 4.625,-0.152 5.472,1.508 4.461,5.691 -3.035,12.569 -6.038,25.154 -8.565,37.831 -0.855,4.286 -2.969,4.944 -6.652,4.933 -30.329,-0.086 -60.659,-0.121 -90.989,0.04 -4.036,0.022 -5.839,-1.472 -6.655,-5.191 -2.77,-12.63 -5.495,-25.276 -8.603,-37.824 -1.213,-4.896 0.92,-5.501 4.876,-5.439 8.537,0.133 17.085,-0.169 25.614,0.116 4.582,0.155 6.191,-1.348 6.099,-6.014 C 53.164,33.439 53.099,20.474 53.443,7.526 53.583,2.297 51.581,1.134 46.812,1.204 31.21,1.436 15.603,1.291 -0.002,1.291 -0.001,0.86 0,0.431 0,0" /></g><g
           transform="translate(953.2969,852.2769)"
           id="g52"><path
             id="path54"
             style="fill:#fec663;fill-opacity:1;fill-rule:nonzero;stroke:none"
             d="m 0,0 c 10.758,-46.052 21.157,-90.925 31.812,-135.738 1.357,-5.71 -0.111,-7.161 -5.766,-7.105 -19.992,0.198 -39.989,0.06 -59.983,-0.159 -4.724,-0.053 -7.076,0.418 -5.413,6.248 12.637,44.3 25.013,88.675 37.495,133.021 C -1.627,-2.92 -1.103,-2.191 0,0" /></g><g
           transform="translate(556.1074,851.3169)"
           id="g56"><path
             id="path58"
             style="fill:#fec663;fill-opacity:1;fill-rule:nonzero;stroke:none"
             d="m 0,0 c 7.688,-32.868 15.371,-65.737 23.065,-98.604 2.812,-12.013 5.538,-24.047 8.527,-36.015 1.317,-5.271 0.178,-7.347 -5.756,-7.278 -20.305,0.238 -40.618,0.1 -60.924,-0.162 -5.056,-0.066 -5.825,1.322 -4.462,6.118 12.842,45.192 25.447,90.45 38.121,135.69 C -0.952,-0.168 -0.476,-0.084 0,0" /></g></g></g></g></svg>